<svg width="146" height="213" viewBox="0 0 146 213" fill="none" xmlns="http://www.w3.org/2000/svg">
<path d="M72.8919 0C72.9632 0 73.0346 0 73.1081 0C73.1174 0.121461 73.1268 0.242921 73.1364 0.368062C73.4206 3.68718 74.4951 6.60542 76.6749 9.15319C76.7823 9.28374 76.7823 9.28374 76.8919 9.41693C79.2852 12.2192 82.9908 13.8041 86.6188 14.1067C86.8962 14.1203 87.1734 14.1296 87.4509 14.1379C91.7177 14.2698 95.4156 15.8178 98.4316 18.8631C101.276 21.8963 102.183 25.5556 102.183 29.6132C111.814 29.6132 121.444 29.6132 131.366 29.6132C131.366 34.6593 131.366 39.7054 131.366 44.9044C131.973 44.94 132.579 44.9755 133.204 45.0121C133.572 45.0636 133.923 45.1167 134.285 45.1939C134.375 45.2127 134.465 45.2316 134.558 45.251C138.139 46.0391 141.462 48.1863 143.5 51.2506C144.688 53.1077 145.458 55.0105 145.85 57.1805C145.869 57.2793 145.888 57.3781 145.907 57.4799C145.959 57.8352 145.972 58.1701 145.972 58.529C145.972 58.6696 145.973 58.8101 145.973 58.955C145.973 59.1105 145.973 59.266 145.972 59.4216C145.972 59.5878 145.973 59.7541 145.973 59.9203C145.974 60.3789 145.974 60.8375 145.973 61.2961C145.973 61.7944 145.974 62.2927 145.974 62.791C145.975 63.78 145.975 64.7691 145.975 65.7582C145.975 66.9426 145.976 68.127 145.977 69.3114C145.979 72.1743 145.979 75.0372 145.98 77.9002C145.98 79.2544 145.98 80.6086 145.981 81.9628C145.982 86.5251 145.983 91.0875 145.984 95.6498C145.984 95.8679 145.984 96.0859 145.984 96.304C145.984 96.7413 145.984 97.1786 145.984 97.616C145.984 98.128 145.984 98.64 145.984 99.152C145.984 99.2985 145.984 99.445 145.984 99.5916C145.984 104.297 145.986 109.002 145.989 113.707C145.991 118.754 145.993 123.801 145.993 128.848C145.993 129.394 145.993 129.94 145.993 130.486C145.993 130.62 145.993 130.755 145.993 130.893C145.993 133.057 145.994 135.221 145.996 137.385C145.998 139.56 145.998 141.735 145.997 143.909C145.997 145.202 145.997 146.494 145.999 147.786C146 148.649 146 149.513 145.999 150.376C145.998 150.868 145.998 151.359 145.999 151.851C146 152.299 146 152.748 145.999 153.196C145.998 153.356 145.999 153.516 146 153.677C146.015 156.678 145.054 159.652 143.256 162.065C143.194 162.151 143.131 162.237 143.067 162.326C140.9 165.173 137.781 167.075 134.285 167.806C134.204 167.823 134.124 167.841 134.041 167.858C133.143 168.03 132.3 168.041 131.366 168.096C131.366 173.142 131.366 178.188 131.366 183.387C121.736 183.387 112.106 183.387 102.183 183.387C102.183 184.24 102.183 185.092 102.183 185.971C101.538 190.098 99.5179 193.666 96.1118 196.167C94.2035 197.512 92.0479 198.305 89.7533 198.678C89.636 198.698 89.5187 198.717 89.3978 198.737C88.9948 198.786 88.5999 198.805 88.1945 198.817C86.4001 198.872 84.651 199.073 82.9439 199.647C82.8291 199.686 82.7143 199.724 82.596 199.764C79.5831 200.85 77.1256 202.911 75.3779 205.57C75.317 205.662 75.2561 205.754 75.1934 205.849C73.8218 208.048 73.3232 210.456 73.1081 213C73.0367 213 72.9654 213 72.8919 213C72.8826 212.879 72.8732 212.757 72.8636 212.632C72.5794 209.313 71.5049 206.395 69.3251 203.847C69.2535 203.76 69.1818 203.673 69.1081 203.583C66.7148 200.781 63.0092 199.196 59.3812 198.893C59.1038 198.88 58.8266 198.87 58.5491 198.862C54.2823 198.73 50.5843 197.182 47.5684 194.137C44.7245 191.104 43.8167 187.444 43.8167 183.387C34.1863 183.387 24.5558 183.387 14.6335 183.387C14.6335 178.341 14.6335 173.295 14.6335 168.096C14.0271 168.06 13.4208 168.024 12.796 167.988C12.4276 167.936 12.0767 167.883 11.7152 167.806C11.6252 167.787 11.5352 167.768 11.4425 167.749C7.86084 166.961 4.53773 164.814 2.49979 161.749C1.11563 159.585 0.0292899 157.068 0.0280883 154.458C0.0277624 154.317 0.0274346 154.176 0.0270988 154.031C0.0272824 153.876 0.0274769 153.72 0.0276793 153.565C0.0275009 153.399 0.0272748 153.232 0.0270064 153.066C0.026405 152.608 0.026476 152.149 0.0266568 151.691C0.0267358 151.192 0.0261896 150.694 0.0257266 150.196C0.0249071 149.207 0.0246718 148.218 0.0246117 147.229C0.024513 146.045 0.0237927 144.861 0.0230614 143.676C0.0213251 140.814 0.0206891 137.951 0.0201719 135.089C0.0199194 133.735 0.0195291 132.381 0.0191229 131.027C0.0177573 126.465 0.0165869 121.903 0.0162202 117.341C0.0162027 117.123 0.0161855 116.905 0.0161675 116.687C0.0161314 116.25 0.0160976 115.813 0.0160619 115.376C0.0160201 114.864 0.0159792 114.352 0.0159366 113.84C0.0159244 113.693 0.0159089 113.547 0.015897 113.4C0.0155134 108.696 0.0138846 103.991 0.0113648 99.2867C0.00866303 94.2403 0.00710886 89.1939 0.00697777 84.1475C0.00695924 83.6016 0.00693856 83.0557 0.0069118 82.5098C0.00690577 82.3754 0.00689822 82.241 0.00689201 82.1025C0.00676762 79.939 0.00557437 77.7755 0.0040025 75.612C0.00244994 73.4375 0.00209749 71.263 0.00296676 69.0884C0.00344847 67.7966 0.00303538 66.5048 0.0013241 65.2129C0.000270114 64.3496 0.000394273 63.4864 0.00147583 62.6231C0.00205851 62.1315 0.00214001 61.6398 0.000776544 61.1482C-0.000455816 60.7001 -0.000171884 60.252 0.00127792 59.8039C0.00153909 59.6436 0.0012723 59.4833 0.000374123 59.323C-0.015323 56.3223 0.945615 53.3479 2.74404 50.9348C2.80645 50.8487 2.86887 50.7627 2.93319 50.674C5.09969 47.8271 8.21884 45.9248 11.7152 45.1939C11.836 45.1681 11.836 45.1681 11.9594 45.1418C12.8568 44.9702 13.7 44.9592 14.6335 44.9044C14.6335 39.8584 14.6335 34.8123 14.6335 29.6132C24.264 29.6132 33.8944 29.6132 43.8167 29.6132C43.8167 28.7604 43.8167 27.9075 43.8167 27.0288C44.4616 22.9025 46.4821 19.334 49.8881 16.8333C51.7965 15.4883 53.9521 14.6946 56.2467 14.322C56.364 14.3025 56.4813 14.2829 56.6022 14.2627C57.0052 14.2141 57.4001 14.1953 57.8055 14.1831C59.5999 14.1283 61.349 13.9267 63.0561 13.3529C63.1709 13.3143 63.2857 13.2757 63.404 13.2359C66.4169 12.1504 68.8744 10.0888 70.6221 7.43023C70.683 7.3382 70.7439 7.24617 70.8066 7.15135C72.1782 4.95197 72.6768 2.54359 72.8919 0ZM72.2231 18.3535C71.4299 18.9293 70.6091 19.4366 69.7574 19.9216C69.6938 19.9585 69.6302 19.9955 69.5647 20.0335C66.3566 21.8856 62.5896 22.734 58.9072 22.8601C57.01 22.9283 55.3041 23.4599 53.9768 24.8751C53.7362 25.1855 53.5292 25.5073 53.3283 25.8443C53.2874 25.9061 53.2464 25.9678 53.2042 26.0315C50.9949 29.4986 52.5717 34.2289 52.5717 38.3357C42.9413 38.3357 33.3108 38.3357 23.3885 38.3357C23.3885 43.3818 23.3885 48.4279 23.3885 53.6269C18.9434 53.6067 18.9434 53.6067 17.5488 53.5978C17.1301 53.5967 17.1301 53.5967 16.7113 53.5961C16.5273 53.5956 16.3432 53.5944 16.1592 53.5928C13.9883 53.5742 12.0607 53.8546 10.4304 55.431C9.46358 56.4548 8.77027 57.7475 8.76951 59.1807C8.76892 59.3198 8.76832 59.4588 8.7677 59.6021C8.76813 59.7554 8.76858 59.9087 8.76905 60.062C8.76876 60.2263 8.76837 60.3906 8.7679 60.5549C8.76688 61.0076 8.7672 61.4602 8.76774 61.9129C8.7681 62.405 8.76721 62.897 8.76647 63.3891C8.76536 64.2518 8.76505 65.1146 8.76527 65.9774C8.7656 67.2604 8.7647 68.5434 8.76357 69.8265C8.76148 72.2511 8.76087 74.6758 8.76074 77.1004C8.76065 78.9727 8.7602 80.8449 8.75951 82.7171C8.75932 83.2557 8.75913 83.7943 8.75894 84.3329C8.75889 84.4668 8.75884 84.6007 8.75879 84.7386C8.75746 88.5056 8.7566 92.2726 8.7567 96.0395C8.7567 96.1816 8.75671 96.3237 8.75671 96.4701C8.75673 97.118 8.75675 97.7659 8.75677 98.4139C8.75678 98.7028 8.75678 98.9917 8.75679 99.2806C8.7568 99.4253 8.7568 99.5699 8.75681 99.7145C8.75695 104.287 8.75537 108.86 8.75237 113.432C8.74905 118.486 8.74718 123.54 8.74739 128.595C8.7474 129.133 8.74741 129.672 8.74742 130.211C8.74742 130.41 8.74742 130.41 8.74742 130.613C8.74743 132.749 8.74605 134.886 8.74419 137.022C8.74236 139.168 8.74214 141.315 8.74357 143.461C8.74437 144.737 8.74397 146.013 8.74185 147.288C8.74056 148.14 8.74083 148.992 8.74238 149.844C8.74323 150.33 8.74339 150.815 8.74164 151.301C8.74006 151.743 8.74049 152.185 8.74248 152.627C8.74285 152.786 8.74251 152.944 8.74134 153.103C8.72894 154.904 9.25516 156.308 10.492 157.619C11.981 159.085 13.8542 159.416 15.8725 159.41C16.0627 159.408 16.2529 159.406 16.4431 159.405C16.6218 159.404 16.8006 159.404 16.9793 159.404C17.634 159.402 18.2887 159.397 18.9434 159.393C20.4103 159.387 21.8772 159.38 23.3885 159.373C23.3885 164.419 23.3885 169.465 23.3885 174.664C33.019 174.664 42.6494 174.664 52.5717 174.664C52.5717 178.147 52.5717 181.629 52.5717 185.217C53.1638 187.135 53.9142 188.461 55.7062 189.417C56.8036 189.934 57.827 190.093 59.0316 190.153C63.8127 190.396 68.4861 191.763 72.2956 194.744C72.4906 194.89 72.6713 195.02 72.8919 195.124C73.3215 195.052 73.618 194.788 73.9593 194.525C74.6892 193.986 75.4555 193.528 76.2426 193.078C76.3066 193.041 76.3707 193.004 76.4367 192.966C79.6443 191.114 83.4111 190.266 87.0928 190.14C88.99 190.072 90.6959 189.54 92.0232 188.125C92.2638 187.814 92.4708 187.493 92.6717 187.156C92.7126 187.094 92.7536 187.032 92.7958 186.969C95.0051 183.501 93.4283 178.771 93.4283 174.664C103.059 174.664 112.689 174.664 122.612 174.664C122.612 169.618 122.612 164.572 122.612 159.373C127.057 159.393 127.057 159.393 128.451 159.402C128.87 159.403 128.87 159.403 129.289 159.404C129.473 159.404 129.657 159.406 129.841 159.407C132.012 159.426 133.939 159.145 135.57 157.569C136.887 156.174 137.237 154.689 137.231 152.819C137.231 152.655 137.232 152.49 137.232 152.326C137.233 151.874 137.233 151.422 137.232 150.97C137.232 150.478 137.233 149.987 137.234 149.495C137.235 148.634 137.235 147.772 137.235 146.91C137.234 145.629 137.235 144.348 137.236 143.066C137.239 140.645 137.239 138.223 137.239 135.802C137.239 133.932 137.24 132.062 137.24 130.192C137.241 129.654 137.241 129.116 137.241 128.578C137.241 128.445 137.241 128.311 137.241 128.173C137.243 124.411 137.243 120.648 137.243 116.886C137.243 116.744 137.243 116.602 137.243 116.456C137.243 115.809 137.243 115.162 137.243 114.515C137.243 114.226 137.243 113.938 137.243 113.649C137.243 113.505 137.243 113.36 137.243 113.216C137.243 108.649 137.245 104.083 137.248 99.5158C137.251 94.4679 137.253 89.42 137.253 84.3721C137.253 83.834 137.253 83.2959 137.253 82.7578C137.253 82.6253 137.253 82.4928 137.253 82.3563C137.253 80.2227 137.254 78.0891 137.256 75.9554C137.258 73.8117 137.258 71.668 137.256 69.5242C137.256 68.2502 137.256 66.9762 137.258 65.7023C137.259 64.8514 137.259 64.0006 137.258 63.1498C137.257 62.6649 137.257 62.18 137.258 61.6952C137.26 61.2537 137.26 60.8122 137.258 60.3707C137.257 60.2124 137.257 60.054 137.259 59.8957C137.271 58.0954 136.744 56.6918 135.508 55.381C134.019 53.9151 132.146 53.5838 130.127 53.5903C129.937 53.592 129.747 53.5936 129.557 53.5953C129.378 53.5958 129.199 53.5962 129.021 53.5963C128.366 53.598 127.711 53.6025 127.057 53.6067C125.59 53.6134 124.123 53.62 122.612 53.6269C122.612 48.5808 122.612 43.5347 122.612 38.3357C112.981 38.3357 103.351 38.3357 93.4283 38.3357C93.4283 34.8532 93.4283 31.3707 93.4283 27.7826C92.8362 25.8655 92.0858 24.5391 90.2938 23.5829C89.1964 23.0661 88.173 22.9066 86.9684 22.8471C82.1074 22.6002 77.6188 21.1611 73.6759 18.2749C72.9892 17.7741 72.8662 17.876 72.2231 18.3535Z" fill="#D7A951"/>
</svg>
